<svg width="10" height="11" viewBox="0 0 10 11" fill="none" xmlns="http://www.w3.org/2000/svg">
<path d="M9.11649 10.4374L6.02087 7.10309C4.64377 8.15744 2.74619 7.89954 1.65551 6.50979C0.564828 5.12005 0.644914 3.06209 1.83974 1.7755C3.03426 0.488345 4.9454 0.401726 6.23612 1.57624C7.52684 2.75076 7.76645 4.79451 6.78733 6.27767L9.88295 9.612L9.11704 10.4368L9.11649 10.4374ZM4.13749 1.91666C3.11033 1.91641 2.22416 2.6929 2.0155 3.77601C1.80684 4.85911 2.33305 5.95116 3.27553 6.39097C4.21801 6.83079 5.31773 6.49749 5.90888 5.59287C6.50002 4.68824 6.42012 3.46094 5.71754 2.654L6.04524 3.004L5.67583 2.60733L5.66933 2.60033C5.26405 2.16119 4.71242 1.91499 4.13749 1.91666Z" fill="#2E3A59"/>
</svg>
